<svg height="837.497" viewBox="0 0 791.997 837.497" width="791.997" xmlns="http://www.w3.org/2000/svg"><path d="m251.31 240.305c-73.877-46.675-163.859-19.408-199.344-4.94l21.804 7.813-21.035 17.83 25.958 9.302-21.035 17.829 25.958 9.302-21.035 17.83 25.958 9.302-21.034 17.83 25.958 9.302-21.034 17.83 25.958 9.302-21.035 17.83 25.958 9.302-21.035 17.83 18.482 6.623c31.857-8.8 85.089-13.597 146.136 20.56 123.278 68.976 281.469 3.189 281.469 3.189l16.204-215.248s-196.812 62.32-293.258 1.386z" fill="#3998ff"/><path d="m521.37 236.492c-7.514 0-13.997-5.633-14.882-13.276-5.954-51.449-32.513-94.677-78.94-128.481-35.536-25.874-69.944-36.23-70.288-36.332-7.936-2.348-12.481-10.682-10.146-18.621 2.336-7.939 10.652-12.488 18.592-10.166 1.574.461 38.995 11.605 78.649 40.249 53.247 38.461 85.037 90.297 91.935 149.902.952 8.229-4.947 15.673-13.176 16.625-.586.068-1.168.101-1.743.101z" fill="#f9a5e9"/><path d="m335.887 59.4s-15.823 22.273-19.692 28.739 2.413 14.413 18.932-.676c16.52-15.089 38.091-28.928 37.856-46.308s-69.805-37.898-87.047-40.722-19.302 8.833-3.751 15.156 31.847 16.933 31.847 16.933-34.692-.549-46.974-.084c-12.282.466-13.209 10.987 1.947 14.738s46.37 2.61 46.37 2.61-33.715 11.246-44.142 15.882c-10.427 4.637-13.645 19.306 9.11 13.184s55.543-19.453 55.543-19.453z" fill="#f9a5e9"/><path d="m426.767 252.948c-5.512 0-10.816-3.048-13.439-8.317-23.084-46.364-62.753-77.992-117.906-94.007-42.213-12.258-78.097-10.308-78.451-10.282-8.272.478-15.369-5.805-15.87-14.064-.502-8.261 5.771-15.365 14.03-15.879 1.635-.104 40.617-2.338 87.646 11.124 63.148 18.076 110.663 56.023 137.407 109.737 3.692 7.416.674 16.421-6.742 20.113-2.146 1.069-4.429 1.575-6.674 1.575z" fill="#f9a5e9"/><path d="m347.216 584.767s41.464 12.472 66.407-29.168c19.93-33.271-12.151-63.43-12.151-63.43-21.238-16.642-82.362 76.223-54.256 92.598z" fill="#f9a5e9"/><path d="m701.433 601.83c-5.89 0-11.478-3.491-13.868-9.272l-35.77-86.512-119.779-33.782c-7.974-2.248-12.614-10.535-10.365-18.508 2.248-7.975 10.536-12.618 18.508-10.365l126.788 35.759c4.426 1.248 8.034 4.456 9.791 8.705l38.552 93.24c3.165 7.655-.476 16.428-8.131 19.594-1.874.774-3.816 1.142-5.726 1.142z" fill="#f9a5e9"/><path d="m517.029 566.742c-.947 0-1.898-.09-2.843-.271l-123.943-23.919c-8.135-1.57-13.456-9.437-11.887-17.571 1.57-8.133 9.431-13.448 17.571-11.886l108.077 20.857 9.724-83.25c.961-8.228 8.424-14.117 16.639-13.158 8.229.961 14.119 8.41 13.158 16.639l-11.598 99.3c-.483 4.144-2.672 7.898-6.038 10.363-2.59 1.896-5.698 2.896-8.86 2.896z" fill="#f9a5e9"/><path d="m790.655 552.883s-39.632-34.12-87.255 8.327c-41.029 36.57-15.678 67.489-15.678 67.489z" fill="#f9a5e9"/><ellipse cx="740.037" cy="591.146" fill="#ff5dd6" rx="64.068" ry="12.911" transform="matrix(.80191122 -.59744321 .59744321 .80191122 -206.583 559.225)"/><path d="m197.208 148.543s-7.312 26.324-8.753 33.72 7.167 12.736 17.576-7.07c10.409-19.805 25.993-40.151 19.866-56.417-6.128-16.266-78.53-11.92-95.705-8.716s-15.151 14.867 1.623 15.529 35.706 5.102 35.706 5.102-32.814 11.273-44.207 15.885c-11.392 4.612-8.689 14.822 6.84 13.199s44.497-13.304 44.497-13.304-27.887 22.034-36.117 29.938c-8.231 7.904-6.272 22.794 13.048 9.303s45.626-37.171 45.626-37.171z" fill="#f9a5e9"/><path d="m652.153 213.808c-2.947-22.801-66.159-33.423-141.188-23.725s-133.463 36.044-130.516 58.845c.003.02.008.039.01.059h-.003l26.999 208.877 271.314-35.069-26.6-205.786c.124-1.073.12-2.14-.017-3.199z" fill="#27d1ff"/><path d="m587.228 351.757s-21.899-1.985-36.682 8.261c-13.218 9.162-30.436-5.857-17.185-22.399 12.973-16.195 39.278-21.81 57.291-13.098 14.883 7.198 18.647 28.676-3.424 27.235z"/><rect fill="#27d1ff" height="78.37" rx="39.185" transform="matrix(-.99737675 .07238526 -.07238526 -.99737675 1279.595 495.008)" width="134.229" x="563.714" y="231.503"/><rect fill="#fff" height="32.515" rx="16.258" transform="matrix(-.99737675 .07238526 -.07238526 -.99737675 1288.14 494.658)" width="77.536" x="596.34" y="254.411"/><rect fill="#fff" height="32.515" rx="16.258" transform="matrix(-.99737675 .07238526 -.07238526 -.99737675 1032.352 521.177)" width="77.536" x="467.965" y="263.035"/><ellipse cx="543.627" cy="442.776" fill="#3998ff" rx="136.982" ry="38.283" transform="matrix(.99174965 -.1281898 .1281898 .99174965 -52.275 73.342)"/><ellipse cx="543.627" cy="442.776" fill="#27d1ff" rx="52.685" ry="14.724" transform="matrix(.99174965 -.1281898 .1281898 .99174965 -52.275 73.342)"/><circle cx="506.507" cy="274.752" r="12.463"/><circle cx="635.59" cy="266.478" r="12.463"/><g fill="#ff2717"><path d="m617.712 704.831c-10.427 0-20.938-5.268-27.259-14.163-2.879-4.052-1.928-9.671 2.124-12.55 4.053-2.878 9.67-1.929 12.55 2.124 3.975 5.596 10.93 7.392 15.464 6.241 3.653-.928 4.392-3.28 4.627-5.226.376-3.113-2.402-5.692-8.261-7.665-16.71-5.628-24.939-17.249-21.476-30.328 1.992-7.523 7.617-13.204 15.434-15.585 9.726-2.963 21.52-.634 28.685 5.657 3.734 3.28 4.103 8.967.823 12.702-3.28 3.733-8.965 4.103-12.702.823-2.188-1.923-7.599-3.17-11.561-1.964-2.71.825-3.094 2.276-3.278 2.974-1.208 4.562 7.212 7.783 9.821 8.662 14.221 4.79 21.842 14.84 20.384 26.885-1.243 10.285-7.997 17.953-18.065 20.511-2.394.607-4.851.901-7.31.901z"/><path d="m527.504 712.412c-.216 0-.433-.007-.651-.022-4.958-.354-8.689-4.661-8.336-9.619l3.744-52.391c.354-4.958 4.654-8.693 9.619-8.336 4.958.354 8.689 4.661 8.336 9.619l-3.744 52.391c-.339 4.739-4.29 8.358-8.968 8.358z"/><path d="m242.422 778.205c-.216 0-.433-.007-.651-.022-4.958-.354-8.689-4.661-8.336-9.619l3.744-52.391c.354-4.958 4.67-8.679 9.619-8.336 4.958.354 8.689 4.661 8.336 9.619l-3.744 52.391c-.339 4.739-4.29 8.358-8.968 8.358z"/><path d="m109.772 837.497c-.206 0-.413-.007-.621-.021-4.959-.339-8.705-4.633-8.367-9.592l8.34-122.274c.339-4.96 4.662-8.677 9.592-8.367 4.959.339 8.705 4.633 8.367 9.592l-8.34 122.274c-.324 4.751-4.279 8.388-8.971 8.388z"/><path d="m272.881 825.219c-.206 0-.413-.007-.621-.021-4.959-.339-8.705-4.633-8.367-9.592l8.34-122.274c.339-4.96 4.656-8.677 9.592-8.367 4.959.339 8.705 4.633 8.367 9.592l-8.34 122.274c-.324 4.751-4.279 8.388-8.971 8.388z"/><path d="m157.958 816.362c-.216 0-.433-.007-.651-.022-4.958-.354-8.689-4.661-8.336-9.619l2.448-34.245c.364-5.098-.1-11.384-4.379-12.384-6.405-1.49-19.98 5.313-24.925 17.423-1.879 4.603-7.133 6.81-11.734 4.93-4.602-1.879-6.809-7.133-4.93-11.734 7.708-18.877 29.05-32.027 45.684-28.146 4.723 1.104 19.995 6.614 18.239 31.195l-2.448 34.245c-.339 4.739-4.29 8.358-8.968 8.358z"/><path d="m567.933 707.389c-.216 0-.433-.007-.651-.022-4.958-.354-8.689-4.661-8.336-9.619l2.115-29.593c.205-2.867.477-12.314-4.631-13.508-4.586-1.073-13.329 3.216-17.173 12.629-1.879 4.603-7.132 6.81-11.734 4.93-4.602-1.879-6.809-7.133-4.93-11.734 6.733-16.491 23.396-26.747 37.932-23.353 4.8 1.121 20.317 6.766 18.491 32.319l-2.115 29.593c-.339 4.739-4.29 8.358-8.968 8.358z"/><path d="m207.124 790.289c-4.519 0-8.947-1.017-13.024-3.164-8.212-4.325-13.871-12.708-15.524-22.999-1.525-9.491.359-19.892 5.308-29.285 4.947-9.394 12.458-16.831 21.147-20.942 9.421-4.458 19.535-4.531 27.747-.207 8.212 4.325 13.871 12.708 15.525 22.999 1.525 9.491-.359 19.892-5.308 29.285-7.996 15.181-22.33 24.313-35.871 24.313zm12.472-61.81c-2.745 0-5.278.938-6.868 1.689-5.112 2.419-9.821 7.18-12.919 13.061-3.098 5.88-4.359 12.456-3.462 18.041.439 2.731 1.82 7.653 6.142 9.929 7.387 3.895 18.646-2.343 24.581-13.612 3.098-5.88 4.358-12.456 3.461-18.04-.438-2.731-1.82-7.653-6.142-9.93-1.574-.829-3.219-1.138-4.793-1.138z"/><path d="m300.324 760.33c-4.652 0-9.151-1.063-13.192-3.191-16.297-8.584-20.881-32.039-10.217-52.284 4.947-9.394 12.458-16.831 21.147-20.942 9.422-4.458 19.535-4.532 27.748-.207 8.212 4.325 13.871 12.708 15.524 22.999 1.525 9.491-.359 19.892-5.308 29.285-4.947 9.394-12.458 16.831-21.147 20.942-4.786 2.265-9.752 3.398-14.556 3.398zm12.305-61.837c-2.745 0-5.279.938-6.868 1.69-5.113 2.419-9.822 7.179-12.92 13.06-5.936 11.27-4.709 24.078 2.68 27.97 4.319 2.275 9.161.63 11.661-.553 5.113-2.419 9.822-7.179 12.92-13.06 3.098-5.88 4.359-12.456 3.462-18.041-.439-2.731-1.82-7.653-6.142-9.929-1.574-.829-3.219-1.138-4.793-1.138z"/><path d="m359.292 805.398c-.206 0-.413-.007-.621-.021-4.959-.339-8.705-4.633-8.367-9.592l8.34-122.274c.339-4.96 4.658-8.678 9.592-8.367 4.959.339 8.705 4.633 8.367 9.592l-8.34 122.274c-.324 4.751-4.279 8.388-8.971 8.388z"/><path d="m386.567 740.482c-4.519 0-8.947-1.017-13.024-3.164-16.297-8.584-20.881-32.039-10.217-52.284 4.947-9.394 12.458-16.831 21.147-20.942 9.422-4.458 19.534-4.532 27.748-.207 8.212 4.325 13.871 12.708 15.524 22.999 1.525 9.491-.359 19.892-5.308 29.285-7.996 15.181-22.33 24.313-35.871 24.313zm12.473-61.81c-2.745 0-5.279.938-6.868 1.69-5.113 2.419-9.822 7.179-12.92 13.06-5.936 11.27-4.709 24.078 2.68 27.97 7.39 3.892 18.646-2.343 24.581-13.612 3.098-5.88 4.359-12.456 3.462-18.041-.439-2.731-1.82-7.653-6.142-9.929-1.574-.829-3.219-1.138-4.793-1.138z"/><path d="m477.359 726.227c-6.667 0-13.565-1.759-20.245-5.276-8.212-4.325-13.871-12.708-15.524-22.999-1.525-9.491.359-19.892 5.308-29.285 4.947-9.394 12.458-16.831 21.147-20.942 9.422-4.458 19.537-4.531 27.747-.207 8.455 4.453 12.78 14.054 10.764 23.89-1.174 5.722-7.73 24.61-42.833 27.433-1.227.102-2.417-.053-3.517-.413.862 2.423 2.436 5.092 5.297 6.599 4.487 2.364 13.237 5.572 21.413.515 4.228-2.617 9.773-1.309 12.39 2.917 2.615 4.227 1.31 9.773-2.917 12.39-5.796 3.587-12.295 5.381-19.029 5.381zm5.252-63.922c-2.746 0-5.279.938-6.868 1.689-5.113 2.42-9.822 7.18-12.92 13.061-.693 1.315-1.294 2.666-1.8 4.032.408-.091.827-.155 1.256-.189 17.978-1.446 25.588-7.965 26.643-13.107.399-1.945-.197-3.651-1.519-4.348-1.574-.829-3.219-1.138-4.792-1.138z"/><path d="m40.907 702.582c-2.951 0-5.86-.245-8.687-.748-18.797-3.343-36.859-18.697-31.182-51.764.842-4.897 5.495-8.191 10.394-7.347 4.898.841 8.188 5.494 7.347 10.393-3.057 17.804 2.682 28.521 16.594 30.996 17.016 3.034 39.493-8.032 42.952-26.83 2.75-14.938-7.154-22.071-27.651-30.738-7.618-3.22-18.664-8.462-26.604-16.763-9.468-9.896-12.623-22.167-9.127-35.487 4.04-15.391 15.002-26.545 30.074-30.601 13.918-3.745 28.638-.404 37.501 8.511 7.806 7.852 10.277 18.808 6.961 30.85-1.319 4.792-6.273 7.608-11.066 6.287-4.792-1.319-7.607-6.274-6.287-11.066 1.573-5.712.774-10.214-2.373-13.38-4.323-4.35-12.383-5.884-20.058-3.82-5.092 1.371-14.117 5.505-17.342 17.79-2.383 9.076-1.236 19.869 25.331 31.101 15.451 6.533 44.213 18.693 38.345 50.575-4.779 25.966-31.245 42.042-55.121 42.042z"/><path d="m121.461 673.952c-.206 0-.413-.007-.621-.021-4.959-.339-8.705-4.633-8.367-9.592l8.34-122.274c.339-4.96 4.649-8.697 9.592-8.367 4.959.339 8.705 4.633 8.367 9.592l-8.34 122.274c-.324 4.751-4.279 8.388-8.971 8.388z"/><path d="m209.085 649.23c-.173 0-.347-.005-.522-.015-4.962-.284-8.755-4.537-8.471-9.5l2.345-40.974c.285-4.962 4.508-8.76 9.5-8.471 4.962.284 8.755 4.537 8.471 9.5l-2.345 40.974c-.274 4.787-4.242 8.485-8.978 8.485z"/><path d="m269.329 638.339c-3.483 0-6.949-.643-10.236-2.088-6.573-2.891-17.335-11.425-15.571-36.111l4.387-61.388c.354-4.957 4.657-8.688 9.619-8.336 4.958.354 8.689 4.661 8.336 9.619l-4.387 61.388c-.704 9.843 1.113 16.702 4.861 18.351 4.048 1.78 11.585-.872 16.125-5.677 3.413-3.611 9.11-3.774 12.723-.359 3.612 3.414 3.773 9.11.359 12.723-6.333 6.702-16.335 11.878-26.216 11.879z"/><path d="m169.137 659.96c-.216 0-.433-.007-.651-.022-4.958-.354-8.689-4.661-8.336-9.619l2.62-36.669c.273-3.82.384-12.823-4.483-13.91-6.313-1.412-19.788 6.155-24.775 19.089-1.789 4.638-6.996 6.948-11.635 5.16-4.638-1.788-6.948-6.997-5.16-11.635 7.628-19.787 28.889-33.897 45.492-30.182 4.816 1.075 20.385 6.616 18.517 32.761l-2.62 36.669c-.339 4.739-4.29 8.358-8.968 8.358z"/><path d="m255.238 589.9c-4.577 0-8.493-3.477-8.946-8.127-.483-4.947 3.136-9.349 8.083-9.831l25.176-2.456c4.961-.488 9.35 3.137 9.831 8.083.483 4.947-3.136 9.349-8.083 9.831l-25.176 2.456c-.297.029-.593.044-.885.044z"/><circle cx="213.465" cy="570.15" r="10.723"/></g></svg>